<mxfile host="65bd71144e">
    <diagram id="bx7pdpdU6yTwsyRG_IkM" name="Page-1">
        <mxGraphModel dx="1050" dy="563" grid="1" gridSize="10" guides="1" tooltips="1" connect="1" arrows="1" fold="1" page="1" pageScale="1" pageWidth="850" pageHeight="1100" math="0" shadow="0">
            <root>
                <mxCell id="0"/>
                <mxCell id="1" parent="0"/>
                <mxCell id="2" value="" style="rounded=1;whiteSpace=wrap;html=1;fillColor=#FFE6CC;" parent="1" vertex="1">
                    <mxGeometry x="150" y="20" width="610" height="720" as="geometry"/>
                </mxCell>
                <mxCell id="3" value="&lt;font color=&quot;#000000&quot;&gt;Rechnungen&lt;/font&gt;" style="text;html=1;fontSize=24;fontStyle=1;verticalAlign=middle;align=center;strokeColor=none;fillColor=#FFE6CC;strokeWidth=0;" parent="1" vertex="1">
                    <mxGeometry x="330" y="20" width="270" height="130" as="geometry"/>
                </mxCell>
                <mxCell id="4" value="&lt;font style=&quot;font-size: 12px;&quot;&gt;Rechnungen&lt;/font&gt;" style="strokeWidth=1;shadow=0;dashed=0;align=center;html=1;shape=mxgraph.mockup.forms.comboBox;strokeColor=#000000;fillColor=#FF8000;align=left;fillColor2=#FF8000;mainText=;fontColor=#000000;fontSize=17;spacingLeft=3;gradientColor=#FF8000;fillStyle=solid;" parent="1" vertex="1">
                    <mxGeometry x="385" y="130" width="160" height="30" as="geometry"/>
                </mxCell>
                <UserObject label="&lt;font style=&quot;font-size: 15px;&quot;&gt;Produktbeschreibung&lt;/font&gt;" placeholders="1" name="Variable" id="5">
                    <mxCell style="text;html=1;strokeColor=none;fillColor=none;align=left;verticalAlign=middle;whiteSpace=wrap;overflow=hidden;strokeWidth=0;fontColor=#000000;" parent="1" vertex="1">
                        <mxGeometry x="200" y="390" width="440" height="40" as="geometry"/>
                    </mxCell>
                </UserObject>
                <mxCell id="9" value="" style="endArrow=none;html=1;strokeColor=#000000;fontSize=15;fontColor=#000000;sourcePerimeterSpacing=1;targetPerimeterSpacing=1;exitX=0;exitY=0;exitDx=0;exitDy=0;entryX=1;entryY=0;entryDx=0;entryDy=0;strokeWidth=3;" parent="1" source="5" target="10" edge="1">
                    <mxGeometry width="50" height="50" relative="1" as="geometry">
                        <mxPoint x="400" y="420" as="sourcePoint"/>
                        <mxPoint x="730" y="397.5" as="targetPoint"/>
                    </mxGeometry>
                </mxCell>
                <UserObject label="&lt;font style=&quot;font-size: 15px;&quot;&gt;Preis&lt;/font&gt;" placeholders="1" name="Variable" id="10">
                    <mxCell style="text;html=1;strokeColor=none;fillColor=none;align=left;verticalAlign=middle;whiteSpace=wrap;overflow=hidden;strokeWidth=0;fontColor=#000000;" parent="1" vertex="1">
                        <mxGeometry x="640" y="390" width="85" height="40" as="geometry"/>
                    </mxCell>
                </UserObject>
                <UserObject label="&lt;font style=&quot;font-size: 15px;&quot;&gt;Produktbeschreibung&lt;/font&gt;" placeholders="1" name="Variable" id="11">
                    <mxCell style="text;html=1;strokeColor=none;fillColor=none;align=left;verticalAlign=middle;whiteSpace=wrap;overflow=hidden;strokeWidth=0;fontColor=#000000;" parent="1" vertex="1">
                        <mxGeometry x="200" y="430" width="440" height="40" as="geometry"/>
                    </mxCell>
                </UserObject>
                <UserObject label="&lt;font style=&quot;font-size: 15px;&quot;&gt;Preis&lt;/font&gt;" placeholders="1" name="Variable" id="12">
                    <mxCell style="text;html=1;strokeColor=none;fillColor=none;align=left;verticalAlign=middle;whiteSpace=wrap;overflow=hidden;strokeWidth=0;fontColor=#000000;" parent="1" vertex="1">
                        <mxGeometry x="640" y="430" width="85" height="40" as="geometry"/>
                    </mxCell>
                </UserObject>
                <UserObject label="&lt;font style=&quot;font-size: 15px;&quot;&gt;Produktbeschreibung&lt;/font&gt;" placeholders="1" name="Variable" id="13">
                    <mxCell style="text;html=1;strokeColor=none;fillColor=none;align=left;verticalAlign=middle;whiteSpace=wrap;overflow=hidden;strokeWidth=0;fontColor=#000000;" parent="1" vertex="1">
                        <mxGeometry x="200" y="470" width="440" height="40" as="geometry"/>
                    </mxCell>
                </UserObject>
                <UserObject label="&lt;font style=&quot;font-size: 15px;&quot;&gt;Preis&lt;/font&gt;" placeholders="1" name="Variable" id="14">
                    <mxCell style="text;html=1;strokeColor=none;fillColor=none;align=left;verticalAlign=middle;whiteSpace=wrap;overflow=hidden;strokeWidth=0;fontColor=#000000;" parent="1" vertex="1">
                        <mxGeometry x="640" y="470" width="85" height="40" as="geometry"/>
                    </mxCell>
                </UserObject>
                <UserObject label="&lt;font style=&quot;font-size: 15px;&quot;&gt;Produktbeschreibung&lt;/font&gt;" placeholders="1" name="Variable" id="15">
                    <mxCell style="text;html=1;strokeColor=none;fillColor=none;align=left;verticalAlign=middle;whiteSpace=wrap;overflow=hidden;strokeWidth=0;fontColor=#000000;" parent="1" vertex="1">
                        <mxGeometry x="200" y="510" width="440" height="40" as="geometry"/>
                    </mxCell>
                </UserObject>
                <UserObject label="&lt;font style=&quot;font-size: 15px;&quot;&gt;Preis&lt;/font&gt;" placeholders="1" name="Variable" id="16">
                    <mxCell style="text;html=1;strokeColor=none;fillColor=none;align=left;verticalAlign=middle;whiteSpace=wrap;overflow=hidden;strokeWidth=0;fontColor=#000000;" parent="1" vertex="1">
                        <mxGeometry x="640" y="510" width="85" height="40" as="geometry"/>
                    </mxCell>
                </UserObject>
                <UserObject label="&lt;font style=&quot;font-size: 15px;&quot;&gt;Produktbeschreibung&lt;/font&gt;" placeholders="1" name="Variable" id="17">
                    <mxCell style="text;html=1;strokeColor=none;fillColor=none;align=left;verticalAlign=middle;whiteSpace=wrap;overflow=hidden;strokeWidth=0;fontColor=#000000;" parent="1" vertex="1">
                        <mxGeometry x="200" y="550" width="440" height="40" as="geometry"/>
                    </mxCell>
                </UserObject>
                <UserObject label="&lt;font style=&quot;font-size: 15px;&quot;&gt;Preis&lt;/font&gt;" placeholders="1" name="Variable" id="18">
                    <mxCell style="text;html=1;strokeColor=none;fillColor=none;align=left;verticalAlign=middle;whiteSpace=wrap;overflow=hidden;strokeWidth=0;fontColor=#000000;" parent="1" vertex="1">
                        <mxGeometry x="640" y="550" width="85" height="40" as="geometry"/>
                    </mxCell>
                </UserObject>
                <mxCell id="19" value="" style="endArrow=none;html=1;strokeColor=#000000;fontSize=15;fontColor=#000000;sourcePerimeterSpacing=1;targetPerimeterSpacing=1;exitX=0;exitY=0;exitDx=0;exitDy=0;entryX=1;entryY=0;entryDx=0;entryDy=0;strokeWidth=3;" parent="1" edge="1">
                    <mxGeometry width="50" height="50" relative="1" as="geometry">
                        <mxPoint x="192.50000000000114" y="589" as="sourcePoint"/>
                        <mxPoint x="717.5" y="589" as="targetPoint"/>
                    </mxGeometry>
                </mxCell>
                <UserObject label="&lt;font style=&quot;font-size: 15px;&quot;&gt;Gesamtpreis&lt;/font&gt;" placeholders="1" name="Variable" id="20">
                    <mxCell style="text;html=1;strokeColor=none;fillColor=none;align=left;verticalAlign=middle;whiteSpace=wrap;overflow=hidden;strokeWidth=0;fontColor=#000000;" parent="1" vertex="1">
                        <mxGeometry x="640" y="590" width="110" height="40" as="geometry"/>
                    </mxCell>
                </UserObject>
                <UserObject label="&lt;font style=&quot;font-size: 13px;&quot;&gt;Name&lt;/font&gt;" placeholders="1" name="Variable" id="22">
                    <mxCell style="text;html=1;strokeColor=none;fillColor=none;align=left;verticalAlign=middle;whiteSpace=wrap;overflow=hidden;strokeWidth=0;fontColor=#000000;" parent="1" vertex="1">
                        <mxGeometry x="190" y="190" width="120" height="30" as="geometry"/>
                    </mxCell>
                </UserObject>
                <UserObject label="&lt;font style=&quot;font-size: 13px;&quot;&gt;Nachname&amp;nbsp;&lt;/font&gt;" placeholders="1" name="Variable" id="24">
                    <mxCell style="text;html=1;strokeColor=none;fillColor=none;align=left;verticalAlign=middle;whiteSpace=wrap;overflow=hidden;strokeWidth=0;fontColor=#000000;" parent="1" vertex="1">
                        <mxGeometry x="190" y="220" width="120" height="30" as="geometry"/>
                    </mxCell>
                </UserObject>
                <UserObject label="&lt;font style=&quot;font-size: 13px;&quot;&gt;Stadt,&amp;nbsp; PLZ&lt;/font&gt;" placeholders="1" name="Variable" id="25">
                    <mxCell style="text;html=1;strokeColor=none;fillColor=none;align=left;verticalAlign=middle;whiteSpace=wrap;overflow=hidden;strokeWidth=0;fontColor=#000000;" parent="1" vertex="1">
                        <mxGeometry x="190" y="250" width="130" height="30" as="geometry"/>
                    </mxCell>
                </UserObject>
                <UserObject label="&lt;font style=&quot;font-size: 13px;&quot;&gt;StraÃŸe, Hausnummerr&lt;/font&gt;" placeholders="1" name="Variable" id="26">
                    <mxCell style="text;html=1;strokeColor=none;fillColor=none;align=left;verticalAlign=middle;whiteSpace=wrap;overflow=hidden;strokeWidth=0;fontColor=#000000;" parent="1" vertex="1">
                        <mxGeometry x="190" y="280" width="150" height="30" as="geometry"/>
                    </mxCell>
                </UserObject>
            </root>
        </mxGraphModel>
    </diagram>
</mxfile>